<mxfile host="65bd71144e">
    <diagram id="SATDusXzAfIaOIEmE3iv" name="Page-1">
        <mxGraphModel dx="1529" dy="1475" grid="1" gridSize="10" guides="1" tooltips="1" connect="1" arrows="1" fold="1" page="1" pageScale="1" pageWidth="850" pageHeight="1100" math="0" shadow="0">
            <root>
                <mxCell id="0"/>
                <mxCell id="1" parent="0"/>
                <mxCell id="2" value="Amphibie" style="swimlane;fontStyle=1;align=center;verticalAlign=top;childLayout=stackLayout;horizontal=1;startSize=26;horizontalStack=0;resizeParent=1;resizeParentMax=0;resizeLast=0;collapsible=1;marginBottom=0;" parent="1" vertex="1">
                    <mxGeometry x="950" y="164" width="160" height="34" as="geometry"/>
                </mxCell>
                <mxCell id="4" value="" style="line;strokeWidth=1;fillColor=none;align=left;verticalAlign=middle;spacingTop=-1;spacingLeft=3;spacingRight=3;rotatable=0;labelPosition=right;points=[];portConstraint=eastwest;strokeColor=inherit;" parent="2" vertex="1">
                    <mxGeometry y="26" width="160" height="8" as="geometry"/>
                </mxCell>
                <mxCell id="6" value="Avion" style="swimlane;fontStyle=1;align=center;verticalAlign=top;childLayout=stackLayout;horizontal=1;startSize=26;horizontalStack=0;resizeParent=1;resizeParentMax=0;resizeLast=0;collapsible=1;marginBottom=0;" parent="1" vertex="1">
                    <mxGeometry x="790" y="270" width="160" height="34" as="geometry"/>
                </mxCell>
                <mxCell id="8" value="" style="line;strokeWidth=1;fillColor=none;align=left;verticalAlign=middle;spacingTop=-1;spacingLeft=3;spacingRight=3;rotatable=0;labelPosition=right;points=[];portConstraint=eastwest;strokeColor=inherit;" parent="6" vertex="1">
                    <mxGeometry y="26" width="160" height="8" as="geometry"/>
                </mxCell>
                <mxCell id="10" value="Camion" style="swimlane;fontStyle=1;align=center;verticalAlign=top;childLayout=stackLayout;horizontal=1;startSize=26;horizontalStack=0;resizeParent=1;resizeParentMax=0;resizeLast=0;collapsible=1;marginBottom=0;" parent="1" vertex="1">
                    <mxGeometry x="-70" y="174" width="160" height="34" as="geometry"/>
                </mxCell>
                <mxCell id="12" value="" style="line;strokeWidth=1;fillColor=none;align=left;verticalAlign=middle;spacingTop=-1;spacingLeft=3;spacingRight=3;rotatable=0;labelPosition=right;points=[];portConstraint=eastwest;strokeColor=inherit;" parent="10" vertex="1">
                    <mxGeometry y="26" width="160" height="8" as="geometry"/>
                </mxCell>
                <mxCell id="14" value="ULM" style="swimlane;fontStyle=1;align=center;verticalAlign=top;childLayout=stackLayout;horizontal=1;startSize=26;horizontalStack=0;resizeParent=1;resizeParentMax=0;resizeLast=0;collapsible=1;marginBottom=0;" parent="1" vertex="1">
                    <mxGeometry x="300" y="230" width="160" height="34" as="geometry"/>
                </mxCell>
                <mxCell id="16" value="" style="line;strokeWidth=1;fillColor=none;align=left;verticalAlign=middle;spacingTop=-1;spacingLeft=3;spacingRight=3;rotatable=0;labelPosition=right;points=[];portConstraint=eastwest;strokeColor=inherit;" parent="14" vertex="1">
                    <mxGeometry y="26" width="160" height="8" as="geometry"/>
                </mxCell>
                <mxCell id="18" value="Voiture" style="swimlane;fontStyle=1;align=center;verticalAlign=top;childLayout=stackLayout;horizontal=1;startSize=26;horizontalStack=0;resizeParent=1;resizeParentMax=0;resizeLast=0;collapsible=1;marginBottom=0;" parent="1" vertex="1">
                    <mxGeometry x="110" y="250" width="160" height="34" as="geometry"/>
                </mxCell>
                <mxCell id="20" value="" style="line;strokeWidth=1;fillColor=none;align=left;verticalAlign=middle;spacingTop=-1;spacingLeft=3;spacingRight=3;rotatable=0;labelPosition=right;points=[];portConstraint=eastwest;strokeColor=inherit;" parent="18" vertex="1">
                    <mxGeometry y="26" width="160" height="8" as="geometry"/>
                </mxCell>
                <mxCell id="23" value="Hovercraft" style="swimlane;fontStyle=1;align=center;verticalAlign=top;childLayout=stackLayout;horizontal=1;startSize=26;horizontalStack=0;resizeParent=1;resizeParentMax=0;resizeLast=0;collapsible=1;marginBottom=0;" parent="1" vertex="1">
                    <mxGeometry x="480" y="270" width="160" height="34" as="geometry"/>
                </mxCell>
                <mxCell id="25" value="" style="line;strokeWidth=1;fillColor=none;align=left;verticalAlign=middle;spacingTop=-1;spacingLeft=3;spacingRight=3;rotatable=0;labelPosition=right;points=[];portConstraint=eastwest;strokeColor=inherit;" parent="23" vertex="1">
                    <mxGeometry y="26" width="160" height="8" as="geometry"/>
                </mxCell>
                <mxCell id="33" value="Extends" style="endArrow=block;endSize=16;endFill=0;html=1;" parent="1" source="10" target="46" edge="1">
                    <mxGeometry width="160" relative="1" as="geometry">
                        <mxPoint x="430" y="180" as="sourcePoint"/>
                        <mxPoint x="245.53719008264443" y="14" as="targetPoint"/>
                    </mxGeometry>
                </mxCell>
                <mxCell id="34" value="Extends" style="endArrow=block;endSize=16;endFill=0;html=1;" parent="1" source="18" target="46" edge="1">
                    <mxGeometry width="160" relative="1" as="geometry">
                        <mxPoint x="72.17391304347825" y="184" as="sourcePoint"/>
                        <mxPoint x="290.37735849056617" y="14" as="targetPoint"/>
                    </mxGeometry>
                </mxCell>
                <mxCell id="35" value="Extends" style="endArrow=block;endSize=16;endFill=0;html=1;" parent="1" source="14" target="46" edge="1">
                    <mxGeometry width="160" relative="1" as="geometry">
                        <mxPoint x="216.1538461538462" y="260" as="sourcePoint"/>
                        <mxPoint x="322.21476510067123" y="14" as="targetPoint"/>
                    </mxGeometry>
                </mxCell>
                <mxCell id="36" value="Extends" style="endArrow=block;endSize=16;endFill=0;html=1;" parent="1" source="6" target="46" edge="1">
                    <mxGeometry width="160" relative="1" as="geometry">
                        <mxPoint x="383.75" y="240" as="sourcePoint"/>
                        <mxPoint x="383.94495412844026" y="14" as="targetPoint"/>
                    </mxGeometry>
                </mxCell>
                <mxCell id="37" value="Extends" style="endArrow=block;endSize=16;endFill=0;html=1;" parent="1" source="2" target="46" edge="1">
                    <mxGeometry width="160" relative="1" as="geometry">
                        <mxPoint x="512.8571428571431" y="140" as="sourcePoint"/>
                        <mxPoint x="390" y="-6.1666666666667425" as="targetPoint"/>
                    </mxGeometry>
                </mxCell>
                <mxCell id="41" value="Extends" style="endArrow=block;endSize=16;endFill=0;html=1;" parent="1" source="23" target="46" edge="1">
                    <mxGeometry width="160" relative="1" as="geometry">
                        <mxPoint x="710" y="172.24444444444453" as="sourcePoint"/>
                        <mxPoint x="347.03703703703695" y="14" as="targetPoint"/>
                    </mxGeometry>
                </mxCell>
                <mxCell id="46" value="&lt;&lt;abstract&gt;&gt;&#10;Vehicule" style="swimlane;fontStyle=1;align=center;verticalAlign=top;childLayout=stackLayout;horizontal=1;startSize=50;horizontalStack=0;resizeParent=1;resizeParentMax=0;resizeLast=0;collapsible=1;marginBottom=0;" parent="1" vertex="1">
                    <mxGeometry x="290" y="-200" width="210" height="136" as="geometry"/>
                </mxCell>
                <mxCell id="47" value="+ code: string" style="text;strokeColor=none;fillColor=none;align=left;verticalAlign=top;spacingLeft=4;spacingRight=4;overflow=hidden;rotatable=0;points=[[0,0.5],[1,0.5]];portConstraint=eastwest;" parent="46" vertex="1">
                    <mxGeometry y="50" width="210" height="26" as="geometry"/>
                </mxCell>
                <mxCell id="48" value="" style="line;strokeWidth=1;fillColor=none;align=left;verticalAlign=middle;spacingTop=-1;spacingLeft=3;spacingRight=3;rotatable=0;labelPosition=right;points=[];portConstraint=eastwest;strokeColor=inherit;" parent="46" vertex="1">
                    <mxGeometry y="76" width="210" height="8" as="geometry"/>
                </mxCell>
                <mxCell id="49" value="+ afficher(): void" style="text;strokeColor=none;fillColor=none;align=left;verticalAlign=top;spacingLeft=4;spacingRight=4;overflow=hidden;rotatable=0;points=[[0,0.5],[1,0.5]];portConstraint=eastwest;" parent="46" vertex="1">
                    <mxGeometry y="84" width="210" height="26" as="geometry"/>
                </mxCell>
                <mxCell id="50" value="+ &lt;&lt;abstract&gt;&gt; claxoner(): void" style="text;strokeColor=none;fillColor=none;align=left;verticalAlign=top;spacingLeft=4;spacingRight=4;overflow=hidden;rotatable=0;points=[[0,0.5],[1,0.5]];portConstraint=eastwest;" parent="46" vertex="1">
                    <mxGeometry y="110" width="210" height="26" as="geometry"/>
                </mxCell>
                <mxCell id="51" value="&lt;&lt;Interface&gt;&gt;&#10;IRoulant" style="swimlane;fontStyle=1;align=center;verticalAlign=top;childLayout=stackLayout;horizontal=1;startSize=50;horizontalStack=0;resizeParent=1;resizeParentMax=0;resizeLast=0;collapsible=1;marginBottom=0;" parent="1" vertex="1">
                    <mxGeometry x="-40" y="-170" width="210" height="84" as="geometry"/>
                </mxCell>
                <mxCell id="53" value="" style="line;strokeWidth=1;fillColor=none;align=left;verticalAlign=middle;spacingTop=-1;spacingLeft=3;spacingRight=3;rotatable=0;labelPosition=right;points=[];portConstraint=eastwest;strokeColor=inherit;" parent="51" vertex="1">
                    <mxGeometry y="50" width="210" height="8" as="geometry"/>
                </mxCell>
                <mxCell id="55" value="+ rouler():void" style="text;strokeColor=none;fillColor=none;align=left;verticalAlign=top;spacingLeft=4;spacingRight=4;overflow=hidden;rotatable=0;points=[[0,0.5],[1,0.5]];portConstraint=eastwest;" parent="51" vertex="1">
                    <mxGeometry y="58" width="210" height="26" as="geometry"/>
                </mxCell>
                <mxCell id="56" value="&lt;&lt;Interfacet&gt;&gt;&#10;IVolant" style="swimlane;fontStyle=1;align=center;verticalAlign=top;childLayout=stackLayout;horizontal=1;startSize=50;horizontalStack=0;resizeParent=1;resizeParentMax=0;resizeLast=0;collapsible=1;marginBottom=0;" parent="1" vertex="1">
                    <mxGeometry x="610" y="-174" width="210" height="84" as="geometry"/>
                </mxCell>
                <mxCell id="57" value="" style="line;strokeWidth=1;fillColor=none;align=left;verticalAlign=middle;spacingTop=-1;spacingLeft=3;spacingRight=3;rotatable=0;labelPosition=right;points=[];portConstraint=eastwest;strokeColor=inherit;" parent="56" vertex="1">
                    <mxGeometry y="50" width="210" height="8" as="geometry"/>
                </mxCell>
                <mxCell id="58" value="+ voler():void" style="text;strokeColor=none;fillColor=none;align=left;verticalAlign=top;spacingLeft=4;spacingRight=4;overflow=hidden;rotatable=0;points=[[0,0.5],[1,0.5]];portConstraint=eastwest;" parent="56" vertex="1">
                    <mxGeometry y="58" width="210" height="26" as="geometry"/>
                </mxCell>
                <mxCell id="59" value="&lt;&lt;Interfacet&gt;&gt;&#10;INaviguant" style="swimlane;fontStyle=1;align=center;verticalAlign=top;childLayout=stackLayout;horizontal=1;startSize=50;horizontalStack=0;resizeParent=1;resizeParentMax=0;resizeLast=0;collapsible=1;marginBottom=0;" parent="1" vertex="1">
                    <mxGeometry x="870" y="-170" width="210" height="84" as="geometry"/>
                </mxCell>
                <mxCell id="60" value="" style="line;strokeWidth=1;fillColor=none;align=left;verticalAlign=middle;spacingTop=-1;spacingLeft=3;spacingRight=3;rotatable=0;labelPosition=right;points=[];portConstraint=eastwest;strokeColor=inherit;" parent="59" vertex="1">
                    <mxGeometry y="50" width="210" height="8" as="geometry"/>
                </mxCell>
                <mxCell id="61" value="+ naviguer():void" style="text;strokeColor=none;fillColor=none;align=left;verticalAlign=top;spacingLeft=4;spacingRight=4;overflow=hidden;rotatable=0;points=[[0,0.5],[1,0.5]];portConstraint=eastwest;" parent="59" vertex="1">
                    <mxGeometry y="58" width="210" height="26" as="geometry"/>
                </mxCell>
                <mxCell id="62" value="implements" style="endArrow=block;endSize=16;endFill=0;html=1;" parent="1" source="10" target="51" edge="1">
                    <mxGeometry width="160" relative="1" as="geometry">
                        <mxPoint x="40.26315789473665" y="184" as="sourcePoint"/>
                        <mxPoint x="323.9473684210525" y="-54.00000000000023" as="targetPoint"/>
                    </mxGeometry>
                </mxCell>
                <mxCell id="63" value="implements" style="endArrow=block;endSize=16;endFill=0;html=1;" parent="1" source="18" target="51" edge="1">
                    <mxGeometry width="160" relative="1" as="geometry">
                        <mxPoint x="22.931034482758605" y="184" as="sourcePoint"/>
                        <mxPoint x="67.75862068965512" y="-76" as="targetPoint"/>
                    </mxGeometry>
                </mxCell>
                <mxCell id="64" value="implements" style="endArrow=block;endSize=16;endFill=0;html=1;" parent="1" source="6" target="56" edge="1">
                    <mxGeometry width="160" relative="1" as="geometry">
                        <mxPoint x="190.8088235294117" y="260" as="sourcePoint"/>
                        <mxPoint x="87.86764705882342" y="-76" as="targetPoint"/>
                    </mxGeometry>
                </mxCell>
                <mxCell id="65" value="implements" style="endArrow=block;endSize=16;endFill=0;html=1;" parent="1" source="23" target="56" edge="1">
                    <mxGeometry width="160" relative="1" as="geometry">
                        <mxPoint x="639.1346153846152" y="160" as="sourcePoint"/>
                        <mxPoint x="712.2115384615386" y="-80" as="targetPoint"/>
                    </mxGeometry>
                </mxCell>
                <mxCell id="66" value="implements" style="endArrow=block;endSize=16;endFill=0;html=1;" parent="1" source="23" target="59" edge="1">
                    <mxGeometry width="160" relative="1" as="geometry">
                        <mxPoint x="584.9775280898875" y="280" as="sourcePoint"/>
                        <mxPoint x="710.370786516854" y="-80" as="targetPoint"/>
                    </mxGeometry>
                </mxCell>
                <mxCell id="67" value="implements" style="endArrow=block;endSize=16;endFill=0;html=1;" parent="1" source="2" target="59" edge="1">
                    <mxGeometry width="160" relative="1" as="geometry">
                        <mxPoint x="610.4648526077099" y="280" as="sourcePoint"/>
                        <mxPoint x="945.4761904761908" y="-76" as="targetPoint"/>
                    </mxGeometry>
                </mxCell>
            </root>
        </mxGraphModel>
    </diagram>
</mxfile>